{"title":"G.I. Joe Retaliation-2013-EXTENDED-720p-BluRay.x264-[DDR]","uid":8717359,"size":1998715219,"categoryP":"video","categoryS":"hd___movies","magnet":"?xt=urn:btih:4ed687bf3e7d4dfefffcb40df186c21f70b6a428&amp;dn=G.I.+Joe+Retaliation-2013-EXTENDED-720p-BluRay.x264-%5BDDR%5D&amp;tr=udp%3A%2F%2Ftracker.openbittorrent.com%3A80&amp;tr=udp%3A%2F%2Fopen.demonii.com%3A1337&amp;tr=udp%3A%2F%2Ftracker.coppersurfer.tk%3A6969&amp;tr=udp%3A%2F%2Fexodus.desync.com%3A6969","seeders":1,"leechers":0,"uploader":"NokiaAnir","files":14,"time":1374351911,"description":"General\n\nFormat                           : MPEG-4\n\nFormat profile                   : Base Media\n\nCodec ID                         : isom\n\nFile size                        : 1.85 GiB\n\nDuration                         : 2h 3mn\n\nOverall bit rate                 : 2 147 Kbps\n\nEncoded date                     : UTC 2013-07-20 09:31:10\n\nTagged date                      : UTC 2013-07-20 09:31:10\n\nWriting application              : Lavf51.12.1\n\n\n\nVideo\n\nID                               : 1\n\nFormat                           : AVC\n\nFormat/Info                      : Advanced Video Codec\n\nFormat profile                   : &lt;a class=&quot;__cf_email__&quot; href=&quot;/cdn-cgi/l/email-protection&quot; data-cfemail=&quot;3e7c5f4d5b5257505b7e720d100f&quot;&gt;[email&amp;#160;protected]&lt;/a&gt;&lt;script cf-hash='f9e31' type=&quot;text/javascript&quot;&gt;\n/* &lt;![CDATA[ */!function(){try{var t=&quot;currentScript&quot;in document?document.currentScript:function(){for(var t=document.getElementsByTagName(&quot;script&quot;),e=t.length;e--;)if(t[e].getAttribute(&quot;cf-hash&quot;))return t[e]}();if(t&amp;&amp;t.previousSibling){var e,r,n,i,c=t.previousSibling,a=c.getAttribute(&quot;data-cfemail&quot;);if(a){for(e=&quot;&quot;,r=parseInt(a.substr(0,2),16),n=2;a.length-n;n+=2)i=parseInt(a.substr(n,2),16)^r,e+=String.fromCharCode(i);e=document.createTextNode(e),c.parentNode.replaceChild(e,c)}}}catch(u){}}();/* ]]&gt; */&lt;/script&gt;\n\nFormat settings, CABAC           : No\n\nFormat settings, ReFrames        : 1 frame\n\nCodec ID                         : avc1\n\nCodec ID/Info                    : Advanced Video Coding\n\nDuration                         : 2h 3mn\n\nBit rate mode                    : Variable\n\nBit rate                         : 2 015 Kbps\n\nWidth                            : 960 pixels\n\nHeight                           : 540 pixels\n\nDisplay aspect ratio             : 16:9\n\nFrame rate mode                  : Constant\n\nFrame rate                       : 23.976 fps\n\nColor space                      : YUV\n\nChroma subsampling               : 4:2:0\n\nBit depth                        : 8 bits\n\nScan type                        : Progressive\n\nBits/(Pixel*Frame)               : 0.162\n\nStream size                      : 1.73 GiB (94%)\n\nLanguage                         : English\n\nEncoded date                     : UTC 2013-07-20 09:31:10\n\nTagged date                      : UTC 2013-07-20 09:31:10\n\n\n\nAudio\n\nID                               : 2\n\nFormat                           : AAC\n\nFormat/Info                      : Advanced Audio Codec\n\nFormat profile                   : LC\n\nCodec ID                         : 40\n\nDuration                         : 2h 3mn\n\nBit rate mode                    : Variable\n\nBit rate                         : 128 Kbps\n\nChannel(s)                       : 2 channels\n\nChannel positions                : Front: L R\n\nSampling rate                    : 44.1 KHz\n\nCompression mode                 : Lossy\n\nStream size                      : 112 MiB (6%)\n\nLanguage                         : English\n\nEncoded date                     : UTC 2013-07-20 09:31:10\n\nTagged date                      : UTC 2013-07-20 09:31:10\n\n","torrent":{"xt":"urn:btih:4ed687bf3e7d4dfefffcb40df186c21f70b6a428","amp;dn":"G.I.+Joe+Retaliation-2013-EXTENDED-720p-BluRay.x264-%5BDDR%5D","amp;tr":["udp%3A%2F%2Ftracker.openbittorrent.com%3A80","udp%3A%2F%2Fopen.demonii.com%3A1337","udp%3A%2F%2Ftracker.coppersurfer.tk%3A6969","udp%3A%2F%2Fexodus.desync.com%3A6969"],"infoHash":"4ed687bf3e7d4dfefffcb40df186c21f70b6a428","infoHashBuffer":{"type":"Buffer","data":[78,214,135,191,62,125,77,254,255,252,180,13,241,134,194,31,112,182,164,40]},"announce":[],"urlList":[]}}